<?xml version="1.0" encoding="UTF-8"?><svg id="Layer_2" xmlns="http://www.w3.org/2000/svg" viewBox="0 0 401.5 106.3"><defs><style>.cls-1{fill:#fff;}</style></defs><g id="Layer_1-2"><g><path id="path8" class="cls-1" d="M.1,40.6H12.7v1.6h-2.3c-.4,0-.8,0-1.1,.3-.2,.2-.4,.5-.3,.9v19c-.1,.4,.1,.7,.3,1,.4,.3,.8,.4,1.3,.4h2v1.5H.1v-1.5h1.9c.5,0,1,0,1.4-.3,.3-.3,.4-.6,.4-1v-18.9c0-.4-.1-.7-.4-1-.3-.2-.8-.4-1.2-.3H0"/><path id="path10" class="cls-1" d="M24.6,40.6h9.9l5.6,16.7,5.6-16.7h10.1v1.6h-2.2c-.4,0-.8,0-1.1,.3-.2,.3-.3,.6-.3,1v18.8c0,.4,.1,.7,.3,1,.4,.3,.9,.4,1.4,.4h2v1.5h-12.5v-1.5h2.3c.4,0,.7,0,1-.4,.2-.3,.4-.6,.3-1v-20.1l-7.9,23h-1.5l-7.8-23.2v18c0,.9,.3,1.9,1,2.5,.8,.7,1.8,1.1,2.8,1.2v1.5h-9.1v-1.5c1,0,2-.5,2.7-1.2s1-1.7,1-2.7v-15.9c.1-.5-.1-1-.3-1.3-.4-.3-.9-.4-1.4-.3h-2"/><path id="path12" class="cls-1" d="M67.5,40.6h9.9l5.6,16.7,5.6-16.7h10.1v1.6h-2.2c-.4,0-.8,0-1.1,.3-.2,.3-.3,.6-.3,1v18.8c-.1,.4,.1,.7,.3,1,.4,.3,.9,.4,1.4,.4h2v1.5h-12.5v-1.5h2.3c.4,0,.7,0,1-.4,.2-.3,.4-.6,.3-1v-20.1l-7.9,23h-1.4l-7.8-23.2v18c0,.9,.3,1.9,1,2.5,.8,.7,1.8,1.1,2.8,1.2v1.5h-9.2v-1.5c1,0,2-.5,2.7-1.2s1-1.7,1-2.7v-15.9c.1-.5-.1-1-.4-1.3-.4-.3-.9-.4-1.4-.3h-1.9"/><path id="path14" class="cls-1" d="M110.5,40.6h12.4v1.6h-2.6c-.3,0-.6,0-.8,.3-.2,.3-.3,.7-.3,1.1v13.6c-.1,1.6,.4,3.2,1.5,4.4,1.1,1.1,2.7,1.6,4.2,1.5,1.2,0,2.5-.3,3.6-.8,.8-.5,1.5-1.2,1.9-2.1,.5-1.1,.8-2.4,.8-3.7v-10.3c.1-1.1-.2-2.1-.9-3-.6-.7-1.5-1-2.4-1h-.4v-1.5h9.4v1.6h-.6c-.9,0-1.7,.4-2.2,1.1-.5,.8-.8,1.8-.8,2.7v11.2c.1,2.3-.8,4.5-2.5,6.1-2,1.6-4.5,2.5-7,2.3-1.9,0-3.8-.3-5.5-1-1.4-.5-2.5-1.5-3.3-2.7-.7-1.3-1.1-2.8-1-4.3v-13.8c.1-.5-.1-1-.4-1.3-.4-.3-.8-.4-1.3-.3h-1.8"/><path id="path16" class="cls-1" d="M148.6,40.6h7.6l13.4,16.9v-11.4c.2-2-1.3-3.7-3.3-3.8h-.4v-1.6h8.9v1.6c-1,0-2,.4-2.7,1.1-.6,.8-.9,1.8-.8,2.7v19.2h-1.8l-15.3-19.5v13.5c-.1,1.2,.3,2.4,1.1,3.4,.7,.7,1.6,1.1,2.6,1.1h.4v1.5h-9.9v-1.5h.7c1,0,1.9-.4,2.5-1.2,.7-.8,1-1.9,1-3v-15.9c-.6-.9-1.7-1.5-2.8-1.5h-1.1"/><path id="path18" class="cls-1" d="M186.4,40.6h12.5v1.6h-2.2c-.4,0-.8,0-1.1,.3-.2,.2-.4,.5-.3,.9v19c0,.4,.1,.7,.4,1,.4,.3,.8,.4,1.3,.4h2v1.5h-12.5v-1.5h2c.5,0,1,0,1.4-.3,.3-.2,.4-.6,.4-1v-18.9c0-.4-.1-.7-.4-1-.3-.2-.8-.4-1.2-.3h-2.2"/><path id="path20" class="cls-1" d="M212.7,40.6h18.1v1.6l-13.9,21.5h6.3c1,0,2-.2,2.9-.7,.9-.6,1.6-1.4,2.1-2.3,.7-1.5,1.2-3,1.5-4.6h1.4l-.4,9.2h-19.5v-1.5l13.8-21.5h-4.7c-1.7,0-3.3,.5-4.5,1.6-1.1,1.1-1.8,2.9-2.2,5.5h-1.4"/><path id="path22" class="cls-1" d="M253.3,46.3l-4,9.4h7.9m-1.3-15.7l9.2,22.1c.2,.5,.5,.9,.9,1.3,.4,.2,.8,.4,1.2,.3h.9v1.5h-11.5v-1.5h1.1c.6,0,1.2,0,1.8-.3,.3,0,.5-.4,.5-.8s-.1-.6-.2-.8l-1.9-4.5h-9.2l-.9,2.1c-.3,.6-.5,1.3-.5,1.9s.3,1.3,.8,1.8c.6,.5,1.4,.7,2.2,.7h.8v1.5h-9.3v-1.5h.5c.6,0,1.1-.2,1.6-.6,.7-.5,1.2-1.2,1.5-2l8.9-21.1h1.6Z"/><path id="path24" class="cls-1" d="M279.1,40.6h21.6l.5,9.3h-1.4c-.2-1.6-.7-3.2-1.4-4.7-.4-1-1.1-1.8-2-2.4-.7-.5-1.6-.7-2.4-.7s-.8,0-1.1,.3c-.2,.2-.4,.6-.3,.9v19c0,.3,.1,.7,.3,.9,.2,.2,.5,.4,.8,.4h2.8v1.5h-13.2v-1.5h2.7c.3,0,.7,0,1-.3,.2-.2,.4-.6,.3-.9v-19c0-.4-.1-.7-.4-1-.3-.2-.7-.4-1.1-.3-2.8,0-4.8,2.6-5.8,7.8h-1.4"/><path id="path26" class="cls-1" d="M312.8,40.6h12.5v1.6h-2.3c-.4,0-.7,0-1,.3-.2,.2-.4,.5-.3,.9v19c0,.4,0,.7,.4,1,.4,.3,.8,.4,1.3,.4h2v1.5h-12.6v-1.5h1.9c.5,0,1,0,1.4-.3,.3-.2,.4-.6,.4-1v-18.9c0-.4,0-.7-.4-1-.3-.2-.8-.4-1.2-.3h-2.2"/><path id="path28" class="cls-1" d="M350.4,41.6c-1.2,0-2.4,.4-3.4,1.1-1.1,.9-1.9,2.1-2.3,3.5-.7,2.2-.9,4.4-.9,6.7,0,2.3,.2,4.5,.8,6.7,.4,1.3,1.2,2.5,2.3,3.4,1,.7,2.3,1.1,3.5,1.1,1.9,0,3.7-.9,4.8-2.6,1.2-1.7,1.8-4.7,1.8-8.9,0-2.2-.2-4.5-.8-6.7-.4-1.3-1.2-2.5-2.2-3.3-1.1-.6-2.3-1-3.6-1m0-1.6c2.2,0,4.5,.6,6.4,1.7s3.5,2.7,4.5,4.6c1.1,2,1.7,4.2,1.7,6.5,0,3.4-1.2,6.8-3.6,9.2-2.3,2.4-5.6,3.8-9,3.7-4.5,0-8.6-2.3-10.8-6.2-1.1-2-1.7-4.3-1.6-6.6,0-3.4,1.2-6.8,3.6-9.2,2.3-2.4,5.5-3.7,8.8-3.7"/><path id="path30" class="cls-1" d="M375.4,40.6h7.6l13.3,16.9v-11.4c.2-2-1.3-3.7-3.3-3.8h-.4v-1.6h8.9v1.6c-1,0-1.9,.5-2.6,1.1-.6,.8-.9,1.8-.8,2.7v19.2h-1.8l-15.4-19.5v13.5c0,1.2,.3,2.4,1,3.4,.7,.7,1.6,1.1,2.6,1.1h.4v1.5h-9.9v-1.5h.7c1,0,1.9-.4,2.5-1.2,.7-.8,1-1.9,1-3v-15.9c-.6-.9-1.7-1.5-2.8-1.5h-1.1"/><path id="path32" class="cls-1" d="M.5,.1H16.6l.4,7h-1.1c-.2-1.2-.5-2.4-1-3.5-.3-.7-.8-1.3-1.5-1.8-.5-.4-1.2-.5-1.8-.5s-.6,0-.8,.2c-.2,.2-.3,.4-.3,.7v14.3c0,.3,.1,.5,.2,.7,.2,.2,.4,.3,.6,.3h2.1v1.2H3.6v-1.4h2c.3,0,.5,0,.7-.2,.2-.2,.3-.4,.3-.7V2.2c0-.3-.1-.5-.3-.7s-.5-.3-.8-.2C3.4,1.3,1.9,3.3,1.2,7.1H0"/><path id="path34" class="cls-1" d="M63.4,.1h16.1l.4,6.4h-1.1c-.2-1.1-.5-2.2-1-3.3-.4-.6-.9-1.2-1.5-1.5-.8-.4-1.6-.5-2.5-.5h-2.5c-.3,0-.6,0-.9,.2-.2,.2-.3,.4-.3,.7v6.4h.9c.9,0,1.7-.3,2.3-.8,.6-.8,1-1.7,1-2.7h1.1V13.6h-1.1c0-1.1-.3-2.1-.9-3-.7-.6-1.6-.9-2.5-.9h-.7v6.8c0,.2,.1,.5,.3,.6,.4,.2,.8,.3,1.2,.3h2.2c1.4,0,2.7-.5,3.7-1.5,1.1-1.2,1.7-2.8,1.8-4.4h1.1l-.3,7h-16.7v-1.2h1.7c.3,0,.6,0,.9-.3,.2-.2,.3-.5,.3-.8V2.1c0-.3-.1-.5-.3-.7-.3-.2-.7-.3-1-.2h-1.5"/><path id="path36" class="cls-1" d="M30.9,.1h8.6V1.3h-1.2c-.3,0-.6,0-.8,.2-.2,.2-.3,.4-.3,.6v6h7V2.4c0-.3-.1-.7-.3-.9-.3-.2-.6-.3-.9-.3h-1V0h8.5V1.2h-1.2c-.3,0-.7,0-.9,.2-.2,.2-.3,.5-.3,.8v13.9c0,.3,.1,.6,.3,.9,.2,.2,.5,.3,.8,.3h1.3v1.2h-8.5v-1.2h1.3c.3,0,.6,0,.8-.2,.2-.2,.3-.5,.2-.8v-6.6h-7v6.6c0,.3,.1,.6,.2,.8,.2,.2,.4,.3,.6,.2h1.5v1.2h-8.6v-1.2h1.4c.3,0,.5,0,.7-.2,.2-.2,.2-.5,.2-.8V2.4c0-.3-.1-.7-.3-.9-.3-.2-.6-.3-.9-.3h-1.1"/><path id="path38" class="cls-1" d="M6.8,96.4h2.3c.7,0,1.5-.2,2.1-.5,.5-.3,1-.7,1.3-1.2,.3-.7,.5-1.5,.4-2.3,.1-1.2-.3-2.4-1.2-3.2-.9-.5-2-.7-3-.6-.5,0-1.1,0-1.6,.2-.2,.2-.4,.4-.3,.7M.1,87.3H10.9c1.6,0,3.2,.4,4.4,1.5,1.1,.9,1.7,2.2,1.7,3.6s-.3,2-1,2.8-1.6,1.4-2.6,1.8-2.1,.5-3.2,.6h-3.4v6c0,.3,.1,.6,.3,.8s.5,.3,.7,.3h2.1v1.2H.1v-1.2H1.7c.3,0,.6-.1,.8-.3s.3-.5,.3-.8v-14c0-.3-.1-.6-.3-.8s-.4-.3-.7-.3H0v-1.2Z"/><path id="path40" class="cls-1" d="M38.1,91.6l-3,7h5.9m-1-11.7l6.9,16.5c.1,.4,.4,.7,.7,.9s.6,.3,.9,.2h.7v1.2h-8.6v-1.2h.8c.4,0,.9,0,1.3-.2,.2-.1,.4-.3,.4-.6s-.1-.4-.1-.6l-1.4-3.4h-6.9l-.6,1.5c-.2,.5-.4,.9-.4,1.4s.2,1,.6,1.3c.5,.4,1,.5,1.6,.5h.6v1.2h-7v-1.2h.4c.4,0,.9-.1,1.2-.4,.5-.4,.9-.9,1.1-1.5l6.6-15.8,1.2,.2Z"/><path id="path42" class="cls-1" d="M68.8,95.7h1.6c1.2,0,2.3-.3,3.3-1.1,.7-.7,1-1.7,.9-2.7,.1-.9-.2-1.9-.9-2.6-.9-.6-2-.9-3.1-.8-.5,0-1,0-1.5,.3-.2,.3-.4,.7-.3,1.1m-6.5-2.6h9.6c1.3,0,2.6,.2,3.8,.6,.9,.3,1.7,.9,2.2,1.6s.7,1.5,.7,2.3c0,1.3-.7,2.6-1.8,3.3-1.3,.8-2.8,1.2-4.2,1.2,.8,.1,1.5,.4,2.2,.8,.6,.4,1,.9,1.4,1.6,.6,1,1,2.1,1.3,3.2,.1,.5,.3,1,.5,1.5,.1,.2,.3,.3,.5,.3,.5,0,.9-.8,1-2.2h1.1c0,1.2-.3,2.4-1,3.4-1.2,1.1-3,1.3-4.5,.5-.5-.3-.9-.8-1.1-1.4-.3-.8-.5-1.7-.6-2.5-.2-1.1-.4-2.1-.8-3.1-.2-.5-.5-.9-1-1.2-.4-.3-.9-.4-1.4-.4h-1.4v6.8c0,.3,.1,.5,.3,.7,.3,.2,.6,.3,.9,.3h1.7v1.2h-9.4v-1.2h1.4c.3,0,.6-.1,.9-.3,.2-.2,.3-.5,.3-.8v-13.9c0-.3-.1-.6-.2-.8-.2-.2-.5-.3-.8-.3h-1.6v-1.2Z"/><path id="path44" class="cls-1" d="M94.6,87.3h16.1l.4,7h-1.1c-.2-1.2-.5-2.4-1-3.5-.3-.7-.8-1.3-1.5-1.8-.5-.4-1.2-.5-1.8-.5s-.6,0-.8,.2c-.2,.2-.3,.4-.3,.7v14.3c0,.2,.1,.5,.2,.7,.2,.2,.4,.3,.6,.3h2.1v1.2h-9.9v-1.2h2c.3,0,.5-.1,.7-.2,.2-.2,.3-.4,.2-.7v-14.2c0-.3-.1-.5-.3-.8-.2-.2-.5-.3-.9-.2-2.1,0-3.5,1.9-4.3,5.8h-.7"/><path id="path46" class="cls-1" d="M124.5,87.3h5.7l10,12.6v-8.6c0-.7-.2-1.5-.7-2s-1.2-.8-2-.9v-1.1h6.7v1.2c-.7,0-1.5,.3-2,.8-.4,.6-.7,1.3-.6,2.1v14.4h-1.4l-11.4-14.6v10.1c-.1,.9,.2,1.8,.8,2.5,.5,.5,1.3,.8,2,.8h.3v1.2h-7.6v-1.2h.5c.7,0,1.4-.3,1.8-.9,.5-.6,.8-1.4,.8-2.2v-11.9c-.5-.7-1.3-1.1-2.1-1.1h-.8"/><path id="path48" class="cls-1" d="M157.4,87.3h16.1l.4,6.4h-1.1c-.1-1.1-.5-2.3-1-3.3-.4-.6-.9-1.2-1.5-1.5-.8-.4-1.6-.5-2.5-.5h-2.5c-.3,0-.6,0-.9,.2-.2,.2-.3,.4-.3,.6v6.4h.9c.9,0,1.7-.3,2.3-.9,.6-.8,1-1.7,1-2.7h1.1v8.6h-1.1c0-1.1-.3-2.1-.9-3-.7-.6-1.6-.9-2.5-.9h-.7v6.8c0,.2,.1,.5,.3,.6,.3,.2,.7,.3,1.1,.3h2.2c1.4,.1,2.7-.5,3.7-1.5,1.1-1.2,1.7-2.8,1.8-4.4h1.1l-.3,7h-16.8v-1.2h1.7c.3,0,.6-.1,.8-.3,.2-.2,.3-.5,.3-.8v-13.9c0-.3-.1-.5-.3-.7-.3-.2-.7-.2-1-.2h-1.5"/><path id="path50" class="cls-1" d="M195.7,95.7h1.6c1.2,0,2.4-.3,3.3-1.1,.7-.7,1-1.7,.9-2.7,.1-.9-.2-1.9-.9-2.6-.9-.6-2-.9-3.1-.8-.5,0-1,0-1.5,.3-.2,.2-.3,.5-.3,1.1m-6.5-2.6h9.6c1.3,0,2.6,.2,3.8,.6,.9,.3,1.6,.9,2.2,1.6,.5,.7,.7,1.5,.7,2.3,0,1.3-.7,2.6-1.8,3.3-1.3,.8-2.8,1.2-4.3,1.2,.8,.1,1.5,.4,2.2,.8,.6,.4,1,.9,1.4,1.6,.6,1,1,2.1,1.3,3.2,.1,.5,.3,1,.6,1.5,.1,.2,.3,.3,.5,.3,.5,0,.9-.8,1-2.2h1.1c0,1.2-.3,2.4-1,3.4-1.2,1.1-3,1.3-4.5,.5-.5-.3-.9-.8-1.1-1.4-.3-.8-.5-1.7-.6-2.5-.2-1.1-.5-2.1-.8-3.1-.2-.5-.5-.9-1-1.2-.4-.3-.9-.4-1.5-.4h-1.4v6.8c0,.3,.1,.5,.3,.7,.2,.2,.6,.3,.9,.3h1.7v1.2h-9.3v-1.2h1.4c.3,0,.6-.1,.9-.3,.2-.2,.3-.5,.3-.8v-13.9c0-.3-.1-.6-.3-.8-.2-.2-.5-.3-.7-.3h-1.6v-1.2Z"/><path id="path52" class="cls-1" d="M232.9,88.8l1.2-1.6h.8v6.4c.1,0-1,0-1,0-.4-1.6-1.3-3-2.5-4.1-1-.9-2.2-1.4-3.6-1.4s-1.9,.3-2.7,.9c-.7,.5-1.1,1.3-1,2.2,0,.5,.1,1,.4,1.4,.3,.5,.8,.8,1.3,1.1,1,.4,2.1,.7,3.2,.9,1.3,.2,2.5,.6,3.7,1,1,.4,1.8,1.1,2.4,1.9,.6,.9,.9,1.9,.8,2.9,.1,1.6-.6,3-1.8,4.1-1.5,1.2-3.3,1.9-5.2,1.8-1.9,0-3.8-.7-5.2-2l-1.5,1.8h-.9v-6.8h1.1c1.1,3.9,3.3,5.8,6.6,5.8,1.1,.1,2.3-.3,3.2-.9,.7-.6,1.1-1.4,1.1-2.4s-.2-1.2-.5-1.6c-.4-.5-.9-.9-1.5-1.1-.9-.3-1.9-.5-2.8-.7-1.5-.3-3-.7-4.4-1.4s-1.4-1-1.9-1.8c-.4-.8-.6-1.7-.6-2.5-.1-1.5,.6-3,1.7-4.1,1.2-1.1,2.9-1.7,4.5-1.6,1.9-.1,3.7,.6,5.1,1.8"/><path id="path54" class="cls-1" d="M250.4,87.3h8.5v1.2h-1.2c-.3,0-.6,0-.8,.2-.2,.2-.3,.4-.2,.6v6h7v-5.7c0-.3-.1-.7-.3-.9-.3-.2-.6-.3-1-.3h-1.1v-1.1h8.6v1.2h-1.1c-.3,0-.7,0-.9,.2-.2,.2-.3,.5-.3,.8v13.9c0,.3,.1,.6,.3,.9,.2,.2,.5,.3,.8,.3h1.3v1.2h-8.5v-1.2h1.3c.3,0,.6-.1,.8-.2,.2-.2,.3-.5,.2-.8v-6.6h-7v6.6c0,.3,0,.6,.2,.8s.4,.3,.6,.2h1.4v1.2h-8.6v-1.2h1.4c.3,0,.5-.1,.7-.2,.2-.2,.2-.5,.2-.8v-13.9c0-.3-.1-.7-.3-.9-.3-.2-.6-.3-.9-.3h-1.1"/><path id="path56" class="cls-1" d="M283.9,87.3h9.5v1.2h-1.7c-.3,0-.6,0-.8,.2-.2,.2-.3,.4-.3,.6v14.3c0,.3,.1,.5,.3,.7,.3,.2,.6,.3,1,.3h1.5v1.2h-9.5v-1.2h1.5c.4,0,.7-.1,1-.2,.2-.2,.3-.4,.3-.7v-14.1c0-.3-.1-.6-.3-.8-.3-.2-.6-.3-.9-.2h-1.6"/><path id="path58" class="cls-1" d="M314.3,96.4h2.3c.7,0,1.5-.2,2.1-.5,.5-.3,1-.7,1.3-1.2,.3-.7,.4-1.5,.4-2.4,0-1.2-.3-2.4-1.2-3.2-.9-.5-2-.7-3-.6-.5,0-1.1,0-1.6,.2-.2,.2-.4,.4-.3,.7m-6.7-2.1h10.8c1.6,0,3.2,.4,4.4,1.5,1.1,.9,1.7,2.2,1.7,3.6s-.3,2-1,2.8-1.6,1.4-2.6,1.8-2.1,.5-3.2,.6h-3.4v6c0,.3,0,.6,.3,.8s.5,.3,.7,.3h2.1v1.2h-9.8v-1.2h1.7c.3,0,.6-.1,.8-.3s.3-.5,.3-.8v-14c0-.3-.1-.6-.3-.8s-.4-.3-.7-.3h-1.8v-1.2Z"/></g></g></svg>