<?xml version="1.0" encoding="UTF-8"?><svg id="Layer_2" xmlns="http://www.w3.org/2000/svg" viewBox="0 0 164.8 165.3"><defs><style>.cls-1{fill:#fff;}</style></defs><g id="Layer_1-2"><g><path id="path60" class="cls-1" d="M115.3,43.7c-4.4-9.9-25.9-25.5-33.8-30.7l3.1-4.7c1.2,.8,29.8,19.7,35.8,33l-5.1,2.4Z"/><path id="path62" class="cls-1" d="M115.2,73.7c-1.1,0-2.1-.7-2.6-1.7-3.3-7.5-23.5-28.8-31-36.3s-1.1-2.9,0-4,2.9-1.1,4,0,27.8,28.1,32.2,38c.6,1.4,0,3.1-1.5,3.7h0c-.4,.2-.7,.3-1.1,.3"/><path id="path64" class="cls-1" d="M106.8,118.6c-1.2,0-2.3-.8-2.7-2-5.2-17.4,13.4-28.3,19.5-31.9l.8-.5h0l1.1-.9c7.7-5.7,2.4-14.3,1.5-15.7-2.1-2.1-13.6-14.1-12.8-23.1,.2-2.6,1.6-5,3.8-6.5,1.7-1.3,3.7-2.1,5.9-2.2,4.8-.3,12.6,1.9,22.8,14.7,.9,1.3,.6,3-.7,3.9-1.2,.8-2.8,.6-3.7-.4-7.8-9.8-13.4-12.2-16.7-12.6-1.3-.2-2.6,0-3.7,.7h0c0,0-.5,.5-.5,.5-.9,.5-1.4,1.4-1.5,2.5-.5,5,6.7,14.1,11.3,18.7l.3,.4c3.5,4.9,7.4,16-2.2,23.4-.8,.7-1.8,1.4-2.8,1.9-5.7,3.4-20.9,12.3-17,25.5,.4,1.5-.4,3.1-1.9,3.5-.2,0-.4,0-.7,0"/><path id="path66" class="cls-1" d="M102.5,86.4c-1,0-2-.6-2.5-1.5-7-13-22.1-31.3-22.2-31.5-1-1.2-.8-3,.4-4s3-.8,4,.4h0c.6,.8,15.6,18.9,22.9,32.4,.7,1.4,.2,3.1-1.1,3.8-.5,.3-1,.4-1.5,.4"/><path id="path68" class="cls-1" d="M73.1,155.8c-.7,0-1.4-.3-2-.8-1.2-1-1.3-2.8-.3-4,.4-.5,1-.8,1.7-.9,2.7-2.4,11.6-16,13.8-30,1.2-7.9,0-14.2-3.6-18.7-.2-.3-14.7-20.6-14.8-30,0-1.6,1.2-2.8,2.8-2.8h0c1.5,0,2.8,1.2,2.8,2.8,0,6,10.4,22.2,13.7,26.6,14.4,17.7-4.2,49.9-10.7,56.2-.9,.9-2.1,1.5-3.4,1.6"/><path id="path70" class="cls-1" d="M61.8,93.6c-.4,0-.8,0-1.1-.2-1.4-.6-2.1-2.3-1.5-3.7,11.8-27.6,15.5-35.4,16.9-37.8l.2-.4c4-11.4,1.8-13.2,1.7-13.2-1.4-.6-2.2-2.2-1.6-3.6,.6-1.4,2.2-2.2,3.6-1.6,.2,0,.3,0,.5,.2,6.9,3.5,2.5,16,1,20.1h0c0,0-.7,1.6-.7,1.6-1.8,3.1-10.9,24-16.4,37-.5,1-1.5,1.7-2.6,1.6"/><path id="path72" class="cls-1" d="M69.7,123.9h0c-1.7,0-2.9-1.4-2.8-2.9h0c.5-13.7-16.4-18.5-22.8-20.3-1.1-.2-2.2-.6-3.2-1.1-11.2-4.8-10.2-16.5-8-22.1l.2-.4c3.4-5.6,8.1-16.3,6.4-21-.3-1-1.1-1.7-2.1-2l-.7-.3c-1.3-.3-2.6-.2-3.8,.3-3.1,1.2-8,5-13.1,16.4-.6,1.4-2.3,2.1-3.7,1.4-1.4-.6-2.1-2.3-1.4-3.7,6.6-14.9,13.7-19.1,18.4-20,2.1-.4,4.3-.2,6.3,.7,2.5,.9,4.5,2.8,5.3,5.3,3.1,8.4-5.2,23-6.7,25.6-.7,1.8-3.5,11.3,5.3,14.8l1.3,.6,.9,.2c6.8,1.9,27.6,7.8,26.9,26,.1,1.3-1.2,2.5-2.7,2.5"/><path id="path74" class="cls-1" d="M50.3,80.2c-.5,0-1,0-1.4-.4-1.3-.8-1.8-2.5-1-3.8h0c3.9-6.8,23.2-39.6,32.9-45.1,.2-.3,.4-.6,.6-.9,1.3-1.9,4.1-5.8,3.3-8.8-.4-1.5-1.8-2.8-4.2-3.9-1.4-.7-1.9-2.4-1.2-3.8,.7-1.3,2.2-1.9,3.5-1.3,4,1.8,6.5,4.3,7.4,7.6,1.5,5.5-2.3,10.9-4.1,13.5h0c-1,1.5-2.3,2.7-3.8,3.4-2.9,1.6-19.7,25.4-29.4,42.2-.5,.8-1.5,1.3-2.5,1.3"/><path id="path76" class="cls-1" d="M82.4,165.3c-1.6-.1-2.7-1.4-2.6-3,0-1.4,1.2-2.6,2.6-2.6,42.3,0,76.8-34.6,76.8-77S124.8,5.7,82.4,5.7c-1.6-.1-2.7-1.4-2.6-3,0-1.4,1.2-2.6,2.6-2.6C127.8,0,164.8,37.2,164.8,82.7s-37,82.6-82.4,82.6"/><path id="path78" class="cls-1" d="M82.4,165.3C37,165.3,0,128.2,0,82.6S37,0,82.4,0c1.7,0,3.2,1.1,4,2.5,4.8,8.1-4.7,15.2-15.6,23.4-6.6,4.9-14.1,10.5-20.3,17.2s-6.9,9.7-7,10c0,1.5-1.4,2.7-3,2.6-1.4,0-2.6-1.2-2.6-2.6,0-1.3,.6-5.3,8.4-13.8,6.5-7.1,14.2-12.9,21-18,8.7-6.5,16.2-12.1,14.3-15.8C39.7,5.8,5.6,40.2,5.6,82.5s34.4,77,76.8,77c1.6-.1,2.9,1.1,3,2.6,0,1.6-1.1,2.9-2.6,3h-.3"/></g></g></svg>