<?xml version="1.0" encoding="utf-8"?>
<!-- Generator: Adobe Illustrator 24.0.3, SVG Export Plug-In . SVG Version: 6.00 Build 0)  -->
<svg version="1.1"
	 id="Layer_1" xmlns:cc="http://creativecommons.org/ns#" xmlns:dc="http://purl.org/dc/elements/1.1/" xmlns:rdf="http://www.w3.org/1999/02/22-rdf-syntax-ns#" xmlns:svg="http://www.w3.org/2000/svg"
	 xmlns="http://www.w3.org/2000/svg" xmlns:xlink="http://www.w3.org/1999/xlink" x="0px" y="0px" viewBox="0 0 658.7 215.7"
	 style="enable-background:new 0 0 658.7 215.7;" xml:space="preserve">
<style type="text/css">
	.st0{fill:#0093D0;}
	.st1{fill:#231F20;}
	.st2{fill:#62BB46;}
</style>
<path id="path8" class="st0" d="M229.8,80.3h12.6v1.6h-2.3c-0.4,0-0.8,0.1-1.1,0.3c-0.2,0.2-0.4,0.5-0.3,0.9v19
	c-0.1,0.4,0.1,0.7,0.3,1c0.4,0.3,0.8,0.4,1.3,0.4h2v1.5h-12.5v-1.5h1.9c0.5,0,1-0.1,1.4-0.3c0.3-0.3,0.4-0.6,0.4-1V83.3
	c0-0.4-0.1-0.7-0.4-1c-0.3-0.2-0.8-0.4-1.2-0.3h-2.2"/>
<path id="path10" class="st0" d="M254.3,80.3h9.9l5.6,16.7l5.6-16.7h10.1v1.6h-2.2c-0.4,0-0.8,0.1-1.1,0.3c-0.2,0.3-0.3,0.6-0.3,1
	V102c0,0.4,0.1,0.7,0.3,1c0.4,0.3,0.9,0.4,1.4,0.4h2v1.5h-12.5v-1.5h2.3c0.4,0,0.7-0.1,1-0.4c0.2-0.3,0.4-0.6,0.3-1V81.9l-7.9,23
	h-1.5l-7.8-23.2v18c0,0.9,0.3,1.9,1,2.5c0.8,0.7,1.8,1.1,2.8,1.2v1.5h-9.1v-1.5c1-0.1,2-0.5,2.7-1.2c0.7-0.7,1-1.7,1-2.7V83.6
	c0.1-0.5-0.1-1-0.3-1.3c-0.4-0.3-0.9-0.4-1.4-0.3h-2"/>
<path id="path12" class="st0" d="M297.2,80.3h9.9l5.6,16.7l5.6-16.7h10.1v1.6h-2.2c-0.4,0-0.8,0.1-1.1,0.3c-0.2,0.3-0.3,0.6-0.3,1
	V102c-0.1,0.4,0.1,0.7,0.3,1c0.4,0.3,0.9,0.4,1.4,0.4h2v1.5H316v-1.5h2.3c0.4,0,0.7-0.1,1-0.4c0.2-0.3,0.4-0.6,0.3-1V81.9l-7.9,23
	h-1.4l-7.8-23.2v18c0,0.9,0.3,1.9,1,2.5c0.8,0.7,1.8,1.1,2.8,1.2v1.5h-9.2v-1.5c1,0,2-0.5,2.7-1.2c0.7-0.7,1-1.7,1-2.7V83.6
	c0.1-0.5-0.1-1-0.4-1.3c-0.4-0.3-0.9-0.4-1.4-0.3h-1.9"/>
<path id="path14" class="st0" d="M340.2,80.3h12.4v1.6H350c-0.3,0-0.6,0.1-0.8,0.3c-0.2,0.3-0.3,0.7-0.3,1.1v13.6
	c-0.1,1.6,0.4,3.2,1.5,4.4c1.1,1.1,2.7,1.6,4.2,1.5c1.2,0,2.5-0.3,3.6-0.8c0.8-0.5,1.5-1.2,1.9-2.1c0.5-1.1,0.8-2.4,0.8-3.7V85.9
	c0.1-1.1-0.2-2.1-0.9-3c-0.6-0.7-1.5-1-2.4-1h-0.4v-1.5h9.4v1.6H366c-0.9,0-1.7,0.4-2.2,1.1c-0.5,0.8-0.8,1.8-0.8,2.7V97
	c0.1,2.3-0.8,4.5-2.5,6.1c-2,1.6-4.5,2.5-7,2.3c-1.9,0.1-3.8-0.3-5.5-1c-1.4-0.5-2.5-1.5-3.3-2.7c-0.7-1.3-1.1-2.8-1-4.3V83.6
	c0.1-0.5-0.1-1-0.4-1.3c-0.4-0.3-0.8-0.4-1.3-0.3h-1.8"/>
<path id="path16" class="st0" d="M378.3,80.3h7.6l13.4,16.9V85.8c0.2-2-1.3-3.7-3.3-3.8c-0.1,0-0.2,0-0.4,0v-1.6h8.9v1.6
	c-1,0-2,0.4-2.7,1.1c-0.6,0.8-0.9,1.8-0.8,2.7V105h-1.8l-15.3-19.5V99c-0.1,1.2,0.3,2.4,1.1,3.4c0.7,0.7,1.6,1.1,2.6,1.1h0.4v1.5
	h-9.9v-1.5h0.7c1,0,1.9-0.4,2.5-1.2c0.7-0.8,1-1.9,1-3V83.4c-0.6-0.9-1.7-1.5-2.8-1.5h-1.1"/>
<path id="path18" class="st0" d="M416.1,80.3h12.5v1.6h-2.2c-0.4,0-0.8,0.1-1.1,0.3c-0.2,0.2-0.4,0.5-0.3,0.9v19
	c0,0.4,0.1,0.7,0.4,1c0.4,0.3,0.8,0.4,1.3,0.4h2v1.5h-12.5v-1.5h2c0.5,0,1-0.1,1.4-0.3c0.3-0.2,0.4-0.6,0.4-1V83.3
	c0-0.4-0.1-0.7-0.4-1c-0.3-0.2-0.8-0.4-1.2-0.3h-2.2"/>
<path id="path20" class="st0" d="M442.4,80.3h18.1v1.6l-13.9,21.5h6.3c1,0,2-0.2,2.9-0.7c0.9-0.6,1.6-1.4,2.1-2.3
	c0.7-1.5,1.2-3,1.5-4.6h1.4l-0.4,9.2h-19.5v-1.5l13.8-21.5H450c-1.7-0.1-3.3,0.5-4.5,1.6c-1.1,1.1-1.8,2.9-2.2,5.5h-1.4"/>
<path id="path22" class="st0" d="M483,86l-4,9.4h7.9 M485.6,79.7l9.2,22.1c0.2,0.5,0.5,0.9,0.9,1.3c0.4,0.2,0.8,0.4,1.2,0.3h0.9v1.5
	h-11.5v-1.5h1.1c0.6,0,1.2-0.1,1.8-0.3c0.3-0.1,0.5-0.4,0.5-0.8c0-0.3-0.1-0.6-0.2-0.8l-1.9-4.5h-9.2l-0.9,2.1
	c-0.3,0.6-0.5,1.3-0.5,1.9c0,0.7,0.3,1.3,0.8,1.8c0.6,0.5,1.4,0.7,2.2,0.7h0.8v1.5h-9.3v-1.5h0.5c0.6,0,1.1-0.2,1.6-0.6
	c0.7-0.5,1.2-1.2,1.5-2l8.9-21.1L485.6,79.7z"/>
<path id="path24" class="st0" d="M508.8,80.3h21.6l0.5,9.3h-1.4c-0.2-1.6-0.7-3.2-1.4-4.7c-0.4-1-1.1-1.8-2-2.4
	c-0.7-0.5-1.6-0.7-2.4-0.7c-0.4,0-0.8,0.1-1.1,0.3c-0.2,0.2-0.4,0.6-0.3,0.9v19c0,0.3,0.1,0.7,0.3,0.9c0.2,0.2,0.5,0.4,0.8,0.4h2.8
	v1.5H513v-1.5h2.7c0.3,0,0.7-0.1,1-0.3c0.2-0.2,0.4-0.6,0.3-0.9v-19c0-0.4-0.1-0.7-0.4-1c-0.3-0.2-0.7-0.4-1.1-0.3
	c-2.8,0-4.8,2.6-5.8,7.8h-1.4"/>
<path id="path26" class="st0" d="M542.5,80.3H555v1.6h-2.3c-0.4,0-0.7,0.1-1,0.3c-0.2,0.2-0.4,0.5-0.3,0.9v19
	c-0.1,0.4,0.1,0.7,0.4,1c0.4,0.3,0.8,0.4,1.3,0.4h2v1.5h-12.6v-1.5h1.9c0.5,0,1-0.1,1.4-0.3c0.3-0.2,0.4-0.6,0.4-1V83.3
	c0-0.4-0.1-0.7-0.4-1c-0.3-0.2-0.8-0.4-1.2-0.3h-2.2"/>
<path id="path28" class="st0" d="M580.1,81.3c-1.2,0-2.4,0.4-3.4,1.1c-1.1,0.9-1.9,2.1-2.3,3.5c-0.7,2.2-0.9,4.4-0.9,6.7
	c-0.1,2.3,0.2,4.5,0.8,6.7c0.4,1.3,1.2,2.5,2.3,3.4c1,0.7,2.3,1.1,3.5,1.1c1.9,0,3.7-0.9,4.8-2.6c1.2-1.7,1.8-4.7,1.8-8.9
	c0.1-2.2-0.2-4.5-0.8-6.7c-0.4-1.3-1.2-2.5-2.2-3.3C582.6,81.7,581.4,81.3,580.1,81.3 M580,79.7c2.2,0,4.5,0.6,6.4,1.7
	c1.9,1.1,3.5,2.7,4.5,4.6c1.1,2,1.7,4.2,1.7,6.5c0.1,3.4-1.2,6.8-3.6,9.2c-2.3,2.4-5.6,3.8-9,3.7c-4.5,0.1-8.6-2.3-10.8-6.2
	c-1.1-2-1.7-4.3-1.6-6.6c-0.1-3.4,1.2-6.8,3.6-9.2C573.5,81,576.7,79.7,580,79.7"/>
<path id="path30" class="st0" d="M605.1,80.3h7.6L626,97.2V85.8c0.2-2-1.3-3.7-3.3-3.8c-0.1,0-0.2,0-0.4,0v-1.6h8.9v1.6
	c-1,0-1.9,0.5-2.6,1.1c-0.6,0.8-0.9,1.8-0.8,2.7V105H626l-15.4-19.5V99c-0.1,1.2,0.3,2.4,1,3.4c0.7,0.7,1.6,1.1,2.6,1.1h0.4v1.5
	h-9.9v-1.5h0.7c1,0,1.9-0.4,2.5-1.2c0.7-0.8,1-1.9,1-3V83.4c-0.6-0.9-1.7-1.5-2.8-1.5h-1.1"/>
<path id="path32" class="st1" d="M230.2,39.8h16.1l0.4,7h-1.1c-0.2-1.2-0.5-2.4-1-3.5c-0.3-0.7-0.8-1.3-1.5-1.8
	c-0.5-0.4-1.2-0.5-1.8-0.5c-0.3,0-0.6,0.1-0.8,0.2c-0.2,0.2-0.3,0.4-0.3,0.7v14.3c0,0.3,0.1,0.5,0.2,0.7c0.2,0.2,0.4,0.3,0.6,0.3
	h2.1v1.2h-9.8V57h2c0.3,0,0.5-0.1,0.7-0.2c0.2-0.2,0.3-0.4,0.3-0.7V41.9c0-0.3-0.1-0.5-0.3-0.7c-0.2-0.2-0.5-0.3-0.8-0.2
	c-2.1,0-3.6,2-4.3,5.8h-1.1"/>
<path id="path34" class="st1" d="M293.1,39.8h16.1l0.4,6.4h-1.1c-0.2-1.1-0.5-2.2-1-3.3c-0.4-0.6-0.9-1.2-1.5-1.5
	c-0.8-0.4-1.6-0.5-2.5-0.5h-2.5c-0.3,0-0.6,0.1-0.9,0.2c-0.2,0.2-0.3,0.4-0.3,0.7v6.4h0.9c0.9,0,1.7-0.3,2.3-0.8
	c0.6-0.8,1-1.7,1-2.7h1.1v8.6H304c0-1.1-0.3-2.1-0.9-3c-0.7-0.6-1.6-0.9-2.5-0.9h-0.7v6.8c0,0.2,0.1,0.5,0.3,0.6
	c0.4,0.2,0.8,0.3,1.2,0.3h2.2c1.4,0.1,2.7-0.5,3.7-1.5c1.1-1.2,1.7-2.8,1.8-4.4h1.1l-0.3,7h-16.7V57h1.7c0.3,0,0.6-0.1,0.9-0.3
	c0.2-0.2,0.3-0.5,0.3-0.8V41.8c0-0.3-0.1-0.5-0.3-0.7c-0.3-0.2-0.7-0.3-1-0.2h-1.5"/>
<path id="path36" class="st1" d="M260.6,39.8h8.6v1.2H268c-0.3,0-0.6,0.1-0.8,0.2c-0.2,0.2-0.3,0.4-0.3,0.6v6h7v-5.7
	c0-0.3-0.1-0.7-0.3-0.9c-0.3-0.2-0.6-0.3-0.9-0.3h-1v-1.2h8.5v1.2H279c-0.3,0-0.7,0.1-0.9,0.2c-0.2,0.2-0.3,0.5-0.3,0.8v13.9
	c0,0.3,0.1,0.6,0.3,0.9c0.2,0.2,0.5,0.3,0.8,0.3h1.3v1.2h-8.5V57h1.3c0.3,0,0.6-0.1,0.8-0.2c0.2-0.2,0.3-0.5,0.2-0.8v-6.6h-7V56
	c0,0.3,0.1,0.6,0.2,0.8c0.2,0.2,0.4,0.3,0.6,0.2h1.5v1.2h-8.6V57h1.4c0.3,0,0.5-0.1,0.7-0.2c0.2-0.2,0.2-0.5,0.2-0.8V42.1
	c0-0.3-0.1-0.7-0.3-0.9c-0.3-0.2-0.6-0.3-0.9-0.3h-1.1"/>
<path id="path38" class="st1" d="M236.5,136.1h2.3c0.7,0,1.5-0.2,2.1-0.5c0.5-0.3,1-0.7,1.3-1.2c0.3-0.7,0.5-1.5,0.4-2.3
	c0.1-1.2-0.3-2.4-1.2-3.2c-0.9-0.5-2-0.7-3-0.6c-0.5,0-1.1,0-1.6,0.2c-0.2,0.2-0.4,0.4-0.3,0.7 M229.8,127h10.8
	c1.6-0.1,3.2,0.4,4.4,1.5c1.1,0.9,1.7,2.2,1.7,3.6c0,1-0.3,2-1,2.8c-0.7,0.8-1.6,1.4-2.6,1.8c-1,0.4-2.1,0.5-3.2,0.6h-3.4v6
	c0,0.3,0.1,0.6,0.3,0.8c0.2,0.2,0.5,0.3,0.7,0.3h2.1v1.2h-9.8v-1.2h1.6c0.3,0,0.6-0.1,0.8-0.3c0.2-0.2,0.3-0.5,0.3-0.8v-14
	c0-0.3-0.1-0.6-0.3-0.8c-0.2-0.2-0.4-0.3-0.7-0.3h-1.8L229.8,127z"/>
<path id="path40" class="st1" d="M267.8,131.3l-3,7h5.9 M269.7,126.6l6.9,16.5c0.1,0.4,0.4,0.7,0.7,0.9c0.3,0.2,0.6,0.3,0.9,0.2h0.7
	v1.2h-8.6v-1.2h0.8c0.4,0,0.9,0,1.3-0.2c0.2-0.1,0.4-0.3,0.4-0.6c0-0.2-0.1-0.4-0.1-0.6l-1.4-3.4h-6.9l-0.6,1.5
	c-0.2,0.5-0.4,0.9-0.4,1.4c0,0.5,0.2,1,0.6,1.3c0.5,0.4,1,0.5,1.6,0.5h0.6v1.2h-7v-1.2h0.4c0.4,0,0.9-0.1,1.2-0.4
	c0.5-0.4,0.9-0.9,1.1-1.5l6.6-15.8L269.7,126.6z"/>
<path id="path42" class="st1" d="M298.5,135.4h1.6c1.2,0.1,2.3-0.3,3.3-1.1c0.7-0.7,1-1.7,0.9-2.7c0.1-0.9-0.2-1.9-0.9-2.6
	c-0.9-0.6-2-0.9-3.1-0.8c-0.5-0.1-1,0-1.5,0.3c-0.2,0.3-0.4,0.7-0.3,1.1 M292,127h9.6c1.3,0,2.6,0.2,3.8,0.6
	c0.9,0.3,1.7,0.9,2.2,1.6c0.5,0.7,0.7,1.5,0.7,2.3c0,1.3-0.7,2.6-1.8,3.3c-1.3,0.8-2.8,1.2-4.2,1.2c0.8,0.1,1.5,0.4,2.2,0.8
	c0.6,0.4,1,0.9,1.4,1.6c0.6,1,1,2.1,1.3,3.2c0.1,0.5,0.3,1,0.5,1.5c0.1,0.2,0.3,0.3,0.5,0.3c0.5,0,0.9-0.8,1-2.2h1.1
	c0,1.2-0.3,2.4-1,3.4c-1.2,1.1-3,1.3-4.5,0.5c-0.5-0.3-0.9-0.8-1.1-1.4c-0.3-0.8-0.5-1.7-0.6-2.5c-0.2-1.1-0.4-2.1-0.8-3.1
	c-0.2-0.5-0.5-0.9-1-1.2c-0.4-0.3-0.9-0.4-1.4-0.4h-1.4v6.8c0,0.3,0.1,0.5,0.3,0.7c0.3,0.2,0.6,0.3,0.9,0.3h1.7v1.2h-9.4v-1.2h1.4
	c0.3,0,0.6-0.1,0.9-0.3c0.2-0.2,0.3-0.5,0.3-0.8v-13.9c0-0.3-0.1-0.6-0.2-0.8c-0.2-0.2-0.5-0.3-0.8-0.3h-1.6L292,127z"/>
<path id="path44" class="st1" d="M324.3,127h16.1l0.4,7h-1.1c-0.2-1.2-0.5-2.4-1-3.5c-0.3-0.7-0.8-1.3-1.5-1.8
	c-0.5-0.4-1.2-0.5-1.8-0.5c-0.3,0-0.6,0.1-0.8,0.2c-0.2,0.2-0.3,0.4-0.3,0.7v14.3c0,0.2,0.1,0.5,0.2,0.7c0.2,0.2,0.4,0.3,0.6,0.3
	h2.1v1.2h-9.9v-1.2h2c0.3,0,0.5-0.1,0.7-0.2c0.2-0.2,0.3-0.4,0.2-0.7v-14.2c0-0.3-0.1-0.5-0.3-0.8c-0.2-0.2-0.5-0.3-0.9-0.2
	c-2.1,0-3.5,1.9-4.3,5.8H324"/>
<path id="path46" class="st1" d="M354.2,127h5.7l10,12.6v-8.6c0-0.7-0.2-1.5-0.7-2c-0.5-0.5-1.2-0.8-2-0.9V127h6.7v1.2
	c-0.7,0-1.5,0.3-2,0.8c-0.4,0.6-0.7,1.3-0.6,2.1v14.4h-1.4l-11.4-14.6V141c-0.1,0.9,0.2,1.8,0.8,2.5c0.5,0.5,1.3,0.8,2,0.8h0.3v1.2
	H354v-1.2h0.5c0.7,0,1.4-0.3,1.8-0.9c0.5-0.6,0.8-1.4,0.8-2.2v-11.9c-0.5-0.7-1.3-1.1-2.1-1.1h-0.8"/>
<path id="path48" class="st1" d="M387.1,127h16.1l0.4,6.4h-1.1c-0.1-1.1-0.5-2.3-1-3.3c-0.4-0.6-0.9-1.2-1.5-1.5
	c-0.8-0.4-1.6-0.5-2.5-0.5H395c-0.3,0-0.6,0.1-0.9,0.2c-0.2,0.2-0.3,0.4-0.3,0.6v6.4h0.9c0.9,0.1,1.7-0.3,2.3-0.9
	c0.6-0.8,1-1.7,1-2.7h1.1v8.6h-1.1c0-1.1-0.3-2.1-0.9-3c-0.7-0.6-1.6-0.9-2.5-0.9h-0.7v6.8c0,0.2,0.1,0.5,0.3,0.6
	c0.3,0.2,0.7,0.3,1.1,0.3h2.2c1.4,0.1,2.7-0.5,3.7-1.5c1.1-1.2,1.7-2.8,1.8-4.4h1.1l-0.3,7h-16.8v-1.2h1.7c0.3,0,0.6-0.1,0.8-0.3
	c0.2-0.2,0.3-0.5,0.3-0.8V129c0-0.3-0.1-0.5-0.3-0.7c-0.3-0.2-0.7-0.2-1-0.2h-1.5"/>
<path id="path50" class="st1" d="M425.4,135.4h1.6c1.2,0.1,2.4-0.3,3.3-1.1c0.7-0.7,1-1.7,0.9-2.7c0.1-0.9-0.2-1.9-0.9-2.6
	c-0.9-0.6-2-0.9-3.1-0.8c-0.5-0.1-1,0-1.5,0.3c-0.2,0.2-0.3,0.5-0.3,1.1 M418.9,127h9.6c1.3,0,2.6,0.2,3.8,0.6
	c0.9,0.3,1.6,0.9,2.2,1.6c0.5,0.7,0.7,1.5,0.7,2.3c0,1.3-0.7,2.6-1.8,3.3c-1.3,0.8-2.8,1.2-4.3,1.2c0.8,0.1,1.5,0.4,2.2,0.8
	c0.6,0.4,1,0.9,1.4,1.6c0.6,1,1,2.1,1.3,3.2c0.1,0.5,0.3,1,0.6,1.5c0.1,0.2,0.3,0.3,0.5,0.3c0.5,0,0.9-0.8,1-2.2h1.1
	c0,1.2-0.3,2.4-1,3.4c-1.2,1.1-3,1.3-4.5,0.5c-0.5-0.3-0.9-0.8-1.1-1.4c-0.3-0.8-0.5-1.7-0.6-2.5c-0.2-1.1-0.5-2.1-0.8-3.1
	c-0.2-0.5-0.5-0.9-1-1.2c-0.4-0.3-0.9-0.4-1.5-0.4h-1.4v6.8c0,0.3,0.1,0.5,0.3,0.7c0.2,0.2,0.6,0.3,0.9,0.3h1.7v1.2h-9.3v-1.2h1.4
	c0.3,0,0.6-0.1,0.9-0.3c0.2-0.2,0.3-0.5,0.3-0.8v-13.9c0-0.3-0.1-0.6-0.3-0.8c-0.2-0.2-0.5-0.3-0.7-0.3h-1.6L418.9,127z"/>
<path id="path52" class="st1" d="M462.6,128.5l1.2-1.6h0.8l0.1,6.4h-1.1c-0.4-1.6-1.3-3-2.5-4.1c-1-0.9-2.2-1.4-3.6-1.4
	c-1,0-1.9,0.3-2.7,0.9c-0.7,0.5-1.1,1.3-1,2.2c0,0.5,0.1,1,0.4,1.4c0.3,0.5,0.8,0.8,1.3,1.1c1,0.4,2.1,0.7,3.2,0.9
	c1.3,0.2,2.5,0.6,3.7,1c1,0.4,1.8,1.1,2.4,1.9c0.6,0.9,0.9,1.9,0.8,2.9c0.1,1.6-0.6,3-1.8,4.1c-1.5,1.2-3.3,1.9-5.2,1.8
	c-1.9,0-3.8-0.7-5.2-2l-1.5,1.8h-0.9v-6.8h1.1c1.1,3.9,3.3,5.8,6.6,5.8c1.1,0.1,2.3-0.3,3.2-0.9c0.7-0.6,1.1-1.4,1.1-2.4
	c0-0.6-0.2-1.2-0.5-1.6c-0.4-0.5-0.9-0.9-1.5-1.1c-0.9-0.3-1.9-0.5-2.8-0.7c-1.5-0.3-3-0.7-4.4-1.4c-0.8-0.4-1.4-1-1.9-1.8
	c-0.4-0.8-0.6-1.7-0.6-2.5c-0.1-1.5,0.6-3,1.7-4.1c1.2-1.1,2.9-1.7,4.5-1.6C459.4,126.6,461.2,127.3,462.6,128.5"/>
<path id="path54" class="st1" d="M480.1,127h8.5v1.2h-1.2c-0.3,0-0.6,0.1-0.8,0.2c-0.2,0.2-0.3,0.4-0.2,0.6v6h7v-5.7
	c0-0.3-0.1-0.7-0.3-0.9c-0.3-0.2-0.6-0.3-1-0.3H491V127h8.6v1.2h-1.1c-0.3,0-0.7,0.1-0.9,0.2c-0.2,0.2-0.3,0.5-0.3,0.8v13.9
	c0,0.3,0.1,0.6,0.3,0.9c0.2,0.2,0.5,0.3,0.8,0.3h1.3v1.2h-8.5v-1.2h1.3c0.3,0,0.6-0.1,0.8-0.2c0.2-0.2,0.3-0.5,0.2-0.8v-6.6h-7v6.6
	c0,0.3,0,0.6,0.2,0.8c0.2,0.2,0.4,0.3,0.6,0.2h1.4v1.2h-8.6v-1.2h1.4c0.3,0,0.5-0.1,0.7-0.2c0.2-0.2,0.2-0.5,0.2-0.8v-13.9
	c0-0.3-0.1-0.7-0.3-0.9c-0.3-0.2-0.6-0.3-0.9-0.3h-1.1"/>
<path id="path56" class="st1" d="M513.6,127h9.5v1.2h-1.7c-0.3,0-0.6,0.1-0.8,0.2c-0.2,0.2-0.3,0.4-0.3,0.6v14.3
	c0,0.3,0.1,0.5,0.3,0.7c0.3,0.2,0.6,0.3,1,0.3h1.5v1.2h-9.5v-1.2h1.5c0.4,0,0.7-0.1,1-0.2c0.2-0.2,0.3-0.4,0.3-0.7v-14.1
	c0-0.3-0.1-0.6-0.3-0.8c-0.3-0.2-0.6-0.3-0.9-0.2h-1.6"/>
<path id="path58" class="st1" d="M544,136.1h2.3c0.7,0,1.5-0.2,2.1-0.5c0.5-0.3,1-0.7,1.3-1.2c0.3-0.7,0.4-1.5,0.4-2.4
	c0.1-1.2-0.3-2.4-1.2-3.2c-0.9-0.5-2-0.7-3-0.6c-0.5,0-1.1,0-1.6,0.2c-0.2,0.2-0.4,0.4-0.3,0.7 M537.3,127h10.8
	c1.6-0.1,3.2,0.4,4.4,1.5c1.1,0.9,1.7,2.2,1.7,3.6c0,1-0.3,2-1,2.8c-0.7,0.8-1.6,1.4-2.6,1.8c-1,0.4-2.1,0.5-3.2,0.6H544v6
	c0,0.3,0.1,0.6,0.3,0.8c0.2,0.2,0.5,0.3,0.7,0.3h2.1v1.2h-9.8v-1.2h1.7c0.3,0,0.6-0.1,0.8-0.3c0.2-0.2,0.3-0.5,0.3-0.8v-14
	c0-0.3-0.1-0.6-0.3-0.8c-0.2-0.2-0.4-0.3-0.7-0.3h-1.8L537.3,127z"/>
<path id="path60" class="st0" d="M146.7,54.6c-4.4-9.9-25.9-25.5-33.8-30.7l3.1-4.7c1.2,0.8,29.8,19.7,35.8,33L146.7,54.6z"/>
<path id="path62" class="st0" d="M146.6,84.6c-1.1,0-2.1-0.7-2.6-1.7c-3.3-7.5-23.5-28.8-31-36.3c-1.1-1.1-1.1-2.9,0-4s2.9-1.1,4,0
	c1.1,1.1,27.8,28.1,32.2,38c0.6,1.4,0,3.1-1.5,3.7c0,0,0,0,0,0C147.3,84.5,147,84.6,146.6,84.6"/>
<path id="path64" class="st0" d="M138.2,129.5c-1.2,0-2.3-0.8-2.7-2c-5.2-17.4,13.4-28.3,19.5-31.9l0.8-0.5l0,0l1.1-0.9
	c7.7-5.7,2.4-14.3,1.5-15.7c-2.1-2.1-13.6-14.1-12.8-23.1c0.2-2.6,1.6-5,3.8-6.5c1.7-1.3,3.7-2.1,5.9-2.2
	c4.8-0.3,12.6,1.9,22.8,14.7c0.9,1.3,0.6,3-0.7,3.9c-1.2,0.8-2.8,0.6-3.7-0.4c-7.8-9.8-13.4-12.2-16.7-12.6
	c-1.3-0.2-2.6,0.1-3.7,0.7l-0.1,0.1l-0.5,0.4c-0.9,0.5-1.4,1.4-1.5,2.5c-0.5,5,6.7,14.1,11.3,18.7l0.3,0.4c3.5,4.9,7.4,16-2.2,23.4
	c-0.8,0.7-1.8,1.4-2.8,1.9c-5.7,3.4-20.9,12.3-17,25.5c0.4,1.5-0.4,3.1-1.9,3.5C138.7,129.4,138.5,129.5,138.2,129.5"/>
<path id="path66" class="st0" d="M133.9,97.3c-1,0-2-0.6-2.5-1.5c-7-13-22.1-31.3-22.2-31.5c-1-1.2-0.8-3,0.4-4s3-0.8,4,0.4l0,0
	c0.6,0.8,15.6,18.9,22.9,32.4c0.7,1.4,0.2,3.1-1.1,3.8C134.9,97.2,134.4,97.3,133.9,97.3"/>
<path id="path68" class="st2" d="M104.5,166.7c-0.7,0-1.4-0.3-2-0.8c-1.2-1-1.3-2.8-0.3-4c0.4-0.5,1-0.8,1.7-0.9
	c2.7-2.4,11.6-16,13.8-30c1.2-7.9,0-14.2-3.6-18.7c-0.2-0.3-14.7-20.6-14.8-30c0-1.6,1.2-2.8,2.8-2.8c0,0,0,0,0,0
	c1.5,0,2.8,1.2,2.8,2.8c0.1,6,10.4,22.2,13.7,26.6c14.4,17.7-4.2,49.9-10.7,56.2C107,166,105.8,166.6,104.5,166.7"/>
<path id="path70" class="st2" d="M93.2,104.5c-0.4,0-0.8-0.1-1.1-0.2c-1.4-0.6-2.1-2.3-1.5-3.7c11.8-27.6,15.5-35.4,16.9-37.8
	l0.2-0.4c4-11.4,1.8-13.2,1.7-13.2c-1.4-0.6-2.2-2.2-1.6-3.6c0.6-1.4,2.2-2.2,3.6-1.6c0.2,0.1,0.3,0.1,0.5,0.2
	c6.9,3.5,2.5,16,1,20.1v0.1l-0.7,1.5c-1.8,3.1-10.9,24-16.4,37C95.3,103.9,94.3,104.6,93.2,104.5"/>
<path id="path72" class="st2" d="M101.1,134.8H101c-1.6-0.1-2.8-1.4-2.7-2.9c0,0,0,0,0,0c0.5-13.7-16.4-18.5-22.8-20.3
	c-1.1-0.2-2.2-0.6-3.2-1.1c-11.2-4.8-10.2-16.5-8-22.1l0.2-0.4c3.4-5.6,8.1-16.3,6.4-21c-0.3-1-1.1-1.7-2.1-2l-0.7-0.3
	c-1.3-0.3-2.6-0.2-3.8,0.3c-3.1,1.2-8,5-13.1,16.4c-0.6,1.4-2.3,2.1-3.7,1.4c-1.4-0.6-2.1-2.3-1.4-3.7c6.6-14.9,13.7-19.1,18.4-20
	c2.1-0.4,4.3-0.2,6.3,0.7c2.5,0.9,4.5,2.8,5.3,5.3c3.1,8.4-5.2,23-6.7,25.6c-0.7,1.8-3.5,11.3,5.3,14.8l1.3,0.6l0.9,0.2
	c6.8,1.9,27.6,7.8,26.9,26C103.9,133.6,102.6,134.8,101.1,134.8"/>
<path id="path74" class="st2" d="M81.7,91.1c-0.5,0-1-0.1-1.4-0.4c-1.3-0.8-1.8-2.5-1-3.8c0,0,0,0,0,0c3.9-6.8,23.2-39.6,32.9-45.1
	c0.2-0.3,0.4-0.6,0.6-0.9c1.3-1.9,4.1-5.8,3.3-8.8c-0.4-1.5-1.8-2.8-4.2-3.9c-1.4-0.7-1.9-2.4-1.2-3.8c0.7-1.3,2.2-1.9,3.5-1.3
	c4,1.8,6.5,4.3,7.4,7.6c1.5,5.5-2.3,10.9-4.1,13.5l-0.1,0.1c-1,1.4-2.3,2.6-3.8,3.3c-2.9,1.6-19.7,25.4-29.4,42.2
	C83.7,90.6,82.7,91.1,81.7,91.1"/>
<path id="path76" class="st0" d="M113.8,176.2c-1.6-0.1-2.7-1.4-2.6-3c0.1-1.4,1.2-2.6,2.6-2.6c42.3,0,76.8-34.6,76.8-77
	s-34.4-77-76.8-77c-1.6-0.1-2.7-1.4-2.6-3c0.1-1.4,1.2-2.6,2.6-2.6c45.4,0,82.4,37.1,82.4,82.6S159.2,176.2,113.8,176.2"/>
<path id="path78" class="st2" d="M113.8,176.2c-45.4,0-82.4-37.1-82.4-82.7s37-82.6,82.4-82.6c1.7,0.1,3.2,1.1,4,2.5
	c4.8,8.1-4.7,15.2-15.6,23.4C95.6,41.7,88.1,47.3,81.9,54s-6.9,9.7-7,10c-0.1,1.5-1.4,2.7-3,2.6c-1.4-0.1-2.6-1.2-2.6-2.6
	c-0.1-1.3,0.6-5.3,8.4-13.8c6.5-7.1,14.2-12.9,21-18c8.7-6.5,16.2-12.1,14.3-15.8c-41.9,0.3-76,34.7-76,77c0,42.5,34.4,77,76.8,77
	c1.6-0.1,2.9,1.1,3,2.6c0.1,1.6-1.1,2.9-2.6,3c-0.1,0-0.2,0-0.3,0"/>
</svg>
