<?xml version="1.0" encoding="utf-8"?>
<!-- Generator: Adobe Illustrator 27.0.0, SVG Export Plug-In . SVG Version: 6.00 Build 0)  -->
<svg version="1.1"
	 id="Layer_1" xmlns:rdf="http://www.w3.org/1999/02/22-rdf-syntax-ns#" xmlns:dc="http://purl.org/dc/elements/1.1/" xmlns:cc="http://creativecommons.org/ns#" xmlns:svg="http://www.w3.org/2000/svg"
	 xmlns="http://www.w3.org/2000/svg" xmlns:xlink="http://www.w3.org/1999/xlink" x="0px" y="0px" viewBox="0 0 605.7 170.7"
	 style="enable-background:new 0 0 605.7 170.7;" xml:space="preserve">
<style type="text/css">
	.st0{fill:#0093D0;}
	.st1{fill:#231F20;}
	.st2{fill:#62BB46;}
</style>
<path id="path8" class="st0" d="M201.8,72.3h12.6v1.6h-2.3c-0.4,0-0.8,0.1-1.1,0.3c-0.2,0.2-0.4,0.5-0.3,0.9v19
	c-0.1,0.4,0.1,0.7,0.3,1c0.4,0.3,0.8,0.4,1.3,0.4h2V97h-12.5v-1.5h1.9c0.5,0,1-0.1,1.4-0.3c0.3-0.3,0.4-0.6,0.4-1V75.3
	c0-0.4-0.1-0.7-0.4-1c-0.3-0.2-0.8-0.4-1.2-0.3h-2.2"/>
<path id="path10" class="st0" d="M226.3,72.3h9.9l5.6,16.7l5.6-16.7h10.1v1.6h-2.2c-0.4,0-0.8,0.1-1.1,0.3c-0.2,0.3-0.3,0.6-0.3,1
	V94c0,0.4,0.1,0.7,0.3,1c0.4,0.3,0.9,0.4,1.4,0.4h2v1.5h-12.5v-1.5h2.3c0.4,0,0.7-0.1,1-0.4c0.2-0.3,0.4-0.6,0.3-1V73.9l-7.9,23
	h-1.5l-7.8-23.2v18c0,0.9,0.3,1.9,1,2.5c0.8,0.7,1.8,1.1,2.8,1.2v1.5h-9.1v-1.5c1-0.1,2-0.5,2.7-1.2s1-1.7,1-2.7V75.6
	c0.1-0.5-0.1-1-0.3-1.3c-0.4-0.3-0.9-0.4-1.4-0.3h-2"/>
<path id="path12" class="st0" d="M269.2,72.3h9.9l5.6,16.7l5.6-16.7h10.1v1.6h-2.2c-0.4,0-0.8,0.1-1.1,0.3c-0.2,0.3-0.3,0.6-0.3,1
	V94c-0.1,0.4,0.1,0.7,0.3,1c0.4,0.3,0.9,0.4,1.4,0.4h2v1.5H288v-1.5h2.3c0.4,0,0.7-0.1,1-0.4c0.2-0.3,0.4-0.6,0.3-1V73.9l-7.9,23
	h-1.4l-7.8-23.2v18c0,0.9,0.3,1.9,1,2.5c0.8,0.7,1.8,1.1,2.8,1.2v1.5h-9.2v-1.5c1,0,2-0.5,2.7-1.2s1-1.7,1-2.7V75.6
	c0.1-0.5-0.1-1-0.4-1.3c-0.4-0.3-0.9-0.4-1.4-0.3h-1.9"/>
<path id="path14" class="st0" d="M312.2,72.3h12.4v1.6H322c-0.3,0-0.6,0.1-0.8,0.3c-0.2,0.3-0.3,0.7-0.3,1.1v13.6
	c-0.1,1.6,0.4,3.2,1.5,4.4c1.1,1.1,2.7,1.6,4.2,1.5c1.2,0,2.5-0.3,3.6-0.8c0.8-0.5,1.5-1.2,1.9-2.1c0.5-1.1,0.8-2.4,0.8-3.7V77.9
	c0.1-1.1-0.2-2.1-0.9-3c-0.6-0.7-1.5-1-2.4-1h-0.4v-1.5h9.4V74H338c-0.9,0-1.7,0.4-2.2,1.1c-0.5,0.8-0.8,1.8-0.8,2.7V89
	c0.1,2.3-0.8,4.5-2.5,6.1c-2,1.6-4.5,2.5-7,2.3c-1.9,0.1-3.8-0.3-5.5-1c-1.4-0.5-2.5-1.5-3.3-2.7c-0.7-1.3-1.1-2.8-1-4.3V75.6
	c0.1-0.5-0.1-1-0.4-1.3c-0.4-0.3-0.8-0.4-1.3-0.3h-1.8"/>
<path id="path16" class="st0" d="M350.3,72.3h7.6l13.4,16.9V77.8c0.2-2-1.3-3.7-3.3-3.8c-0.1,0-0.2,0-0.4,0v-1.6h8.9V74
	c-1,0-2,0.4-2.7,1.1c-0.6,0.8-0.9,1.8-0.8,2.7V97h-1.8l-15.3-19.5V91c-0.1,1.2,0.3,2.4,1.1,3.4c0.7,0.7,1.6,1.1,2.6,1.1h0.4V97h-9.9
	v-1.5h0.7c1,0,1.9-0.4,2.5-1.2c0.7-0.8,1-1.9,1-3V75.4c-0.6-0.9-1.7-1.5-2.8-1.5h-1.1"/>
<path id="path18" class="st0" d="M388.1,72.3h12.5v1.6h-2.2c-0.4,0-0.8,0.1-1.1,0.3c-0.2,0.2-0.4,0.5-0.3,0.9v19
	c0,0.4,0.1,0.7,0.4,1c0.4,0.3,0.8,0.4,1.3,0.4h2V97h-12.5v-1.5h2c0.5,0,1-0.1,1.4-0.3c0.3-0.2,0.4-0.6,0.4-1V75.3
	c0-0.4-0.1-0.7-0.4-1c-0.3-0.2-0.8-0.4-1.2-0.3h-2.2"/>
<path id="path20" class="st0" d="M414.4,72.3h18.1v1.6l-13.9,21.5h6.3c1,0,2-0.2,2.9-0.7c0.9-0.6,1.6-1.4,2.1-2.3
	c0.7-1.5,1.2-3,1.5-4.6h1.4l-0.4,9.2h-19.5v-1.5L426.7,74H422c-1.7-0.1-3.3,0.5-4.5,1.6c-1.1,1.1-1.8,2.9-2.2,5.5h-1.4"/>
<path id="path22" class="st0" d="M455,78l-4,9.4h7.9 M457.6,71.7l9.2,22.1c0.2,0.5,0.5,0.9,0.9,1.3c0.4,0.2,0.8,0.4,1.2,0.3h0.9v1.5
	h-11.5v-1.5h1.1c0.6,0,1.2-0.1,1.8-0.3c0.3-0.1,0.5-0.4,0.5-0.8c0-0.3-0.1-0.6-0.2-0.8l-1.9-4.5h-9.2l-0.9,2.1
	c-0.3,0.6-0.5,1.3-0.5,1.9c0,0.7,0.3,1.3,0.8,1.8c0.6,0.5,1.4,0.7,2.2,0.7h0.8V97h-9.3v-1.5h0.5c0.6,0,1.1-0.2,1.6-0.6
	c0.7-0.5,1.2-1.2,1.5-2l8.9-21.1L457.6,71.7z"/>
<path id="path24" class="st0" d="M480.8,72.3h21.6l0.5,9.3h-1.4c-0.2-1.6-0.7-3.2-1.4-4.7c-0.4-1-1.1-1.8-2-2.4
	c-0.7-0.5-1.6-0.7-2.4-0.7c-0.4,0-0.8,0.1-1.1,0.3c-0.2,0.2-0.4,0.6-0.3,0.9v19c0,0.3,0.1,0.7,0.3,0.9c0.2,0.2,0.5,0.4,0.8,0.4h2.8
	v1.5H485v-1.5h2.7c0.3,0,0.7-0.1,1-0.3c0.2-0.2,0.4-0.6,0.3-0.9v-19c0-0.4-0.1-0.7-0.4-1c-0.3-0.2-0.7-0.4-1.1-0.3
	c-2.8,0-4.8,2.6-5.8,7.8h-1.4"/>
<path id="path26" class="st0" d="M514.5,72.3H527v1.6h-2.3c-0.4,0-0.7,0.1-1,0.3c-0.2,0.2-0.4,0.5-0.3,0.9v19
	c-0.1,0.4,0.1,0.7,0.4,1c0.4,0.3,0.8,0.4,1.3,0.4h2V97h-12.6v-1.5h1.9c0.5,0,1-0.1,1.4-0.3c0.3-0.2,0.4-0.6,0.4-1V75.3
	c0-0.4-0.1-0.7-0.4-1c-0.3-0.2-0.8-0.4-1.2-0.3h-2.2"/>
<path id="path28" class="st0" d="M552.1,73.3c-1.2,0-2.4,0.4-3.4,1.1c-1.1,0.9-1.9,2.1-2.3,3.5c-0.7,2.2-0.9,4.4-0.9,6.7
	c-0.1,2.3,0.2,4.5,0.8,6.7c0.4,1.3,1.2,2.5,2.3,3.4c1,0.7,2.3,1.1,3.5,1.1c1.9,0,3.7-0.9,4.8-2.6c1.2-1.7,1.8-4.7,1.8-8.9
	c0.1-2.2-0.2-4.5-0.8-6.7c-0.4-1.3-1.2-2.5-2.2-3.3C554.6,73.7,553.4,73.3,552.1,73.3 M552,71.7c2.2,0,4.5,0.6,6.4,1.7
	s3.5,2.7,4.5,4.6c1.1,2,1.7,4.2,1.7,6.5c0.1,3.4-1.2,6.8-3.6,9.2c-2.3,2.4-5.6,3.8-9,3.7c-4.5,0.1-8.6-2.3-10.8-6.2
	c-1.1-2-1.7-4.3-1.6-6.6c-0.1-3.4,1.2-6.8,3.6-9.2C545.5,73,548.7,71.7,552,71.7"/>
<path id="path30" class="st0" d="M577.1,72.3h7.6L598,89.2V77.8c0.2-2-1.3-3.7-3.3-3.8c-0.1,0-0.2,0-0.4,0v-1.6h8.9V74
	c-1,0-1.9,0.5-2.6,1.1c-0.6,0.8-0.9,1.8-0.8,2.7V97H598l-15.4-19.5V91c-0.1,1.2,0.3,2.4,1,3.4c0.7,0.7,1.6,1.1,2.6,1.1h0.4V97h-9.9
	v-1.5h0.7c1,0,1.9-0.4,2.5-1.2c0.7-0.8,1-1.9,1-3V75.4c-0.6-0.9-1.7-1.5-2.8-1.5H577"/>
<path id="path32" class="st1" d="M202.2,31.8h16.1l0.4,7h-1.1c-0.2-1.2-0.5-2.4-1-3.5c-0.3-0.7-0.8-1.3-1.5-1.8
	c-0.5-0.4-1.2-0.5-1.8-0.5c-0.3,0-0.6,0.1-0.8,0.2c-0.2,0.2-0.3,0.4-0.3,0.7v14.3c0,0.3,0.1,0.5,0.2,0.7c0.2,0.2,0.4,0.3,0.6,0.3
	h2.1v1.2h-9.8V49h2c0.3,0,0.5-0.1,0.7-0.2c0.2-0.2,0.3-0.4,0.3-0.7V33.9c0-0.3-0.1-0.5-0.3-0.7s-0.5-0.3-0.8-0.2
	c-2.1,0-3.6,2-4.3,5.8h-1.1"/>
<path id="path34" class="st1" d="M265.1,31.8h16.1l0.4,6.4h-1.1c-0.2-1.1-0.5-2.2-1-3.3c-0.4-0.6-0.9-1.2-1.5-1.5
	c-0.8-0.4-1.6-0.5-2.5-0.5H273c-0.3,0-0.6,0.1-0.9,0.2c-0.2,0.2-0.3,0.4-0.3,0.7v6.4h0.9c0.9,0,1.7-0.3,2.3-0.8c0.6-0.8,1-1.7,1-2.7
	h1.1v8.6H276c0-1.1-0.3-2.1-0.9-3c-0.7-0.6-1.6-0.9-2.5-0.9h-0.7v6.8c0,0.2,0.1,0.5,0.3,0.6c0.4,0.2,0.8,0.3,1.2,0.3h2.2
	c1.4,0.1,2.7-0.5,3.7-1.5c1.1-1.2,1.7-2.8,1.8-4.4h1.1l-0.3,7h-16.7V49h1.7c0.3,0,0.6-0.1,0.9-0.3c0.2-0.2,0.3-0.5,0.3-0.8V33.8
	c0-0.3-0.1-0.5-0.3-0.7c-0.3-0.2-0.7-0.3-1-0.2h-1.5"/>
<path id="path36" class="st1" d="M232.6,31.8h8.6V33H240c-0.3,0-0.6,0.1-0.8,0.2c-0.2,0.2-0.3,0.4-0.3,0.6v6h7v-5.7
	c0-0.3-0.1-0.7-0.3-0.9c-0.3-0.2-0.6-0.3-0.9-0.3h-1v-1.2h8.5v1.2H251c-0.3,0-0.7,0.1-0.9,0.2c-0.2,0.2-0.3,0.5-0.3,0.8v13.9
	c0,0.3,0.1,0.6,0.3,0.9c0.2,0.2,0.5,0.3,0.8,0.3h1.3v1.2h-8.5V49h1.3c0.3,0,0.6-0.1,0.8-0.2c0.2-0.2,0.3-0.5,0.2-0.8v-6.6h-7V48
	c0,0.3,0.1,0.6,0.2,0.8c0.2,0.2,0.4,0.3,0.6,0.2h1.5v1.2h-8.6V49h1.4c0.3,0,0.5-0.1,0.7-0.2c0.2-0.2,0.2-0.5,0.2-0.8V34.1
	c0-0.3-0.1-0.7-0.3-0.9c-0.3-0.2-0.6-0.3-0.9-0.3h-1.1"/>
<path id="path38" class="st1" d="M208.5,128.1h2.3c0.7,0,1.5-0.2,2.1-0.5c0.5-0.3,1-0.7,1.3-1.2c0.3-0.7,0.5-1.5,0.4-2.3
	c0.1-1.2-0.3-2.4-1.2-3.2c-0.9-0.5-2-0.7-3-0.6c-0.5,0-1.1,0-1.6,0.2c-0.2,0.2-0.4,0.4-0.3,0.7 M201.8,119h10.8
	c1.6-0.1,3.2,0.4,4.4,1.5c1.1,0.9,1.7,2.2,1.7,3.6c0,1-0.3,2-1,2.8s-1.6,1.4-2.6,1.8c-1,0.4-2.1,0.5-3.2,0.6h-3.4v6
	c0,0.3,0.1,0.6,0.3,0.8s0.5,0.3,0.7,0.3h2.1v1.2h-9.8v-1.2h1.6c0.3,0,0.6-0.1,0.8-0.3s0.3-0.5,0.3-0.8v-14c0-0.3-0.1-0.6-0.3-0.8
	s-0.4-0.3-0.7-0.3h-1.8L201.8,119z"/>
<path id="path40" class="st1" d="M239.8,123.3l-3,7h5.9 M241.7,118.6l6.9,16.5c0.1,0.4,0.4,0.7,0.7,0.9c0.3,0.2,0.6,0.3,0.9,0.2h0.7
	v1.2h-8.6v-1.2h0.8c0.4,0,0.9,0,1.3-0.2c0.2-0.1,0.4-0.3,0.4-0.6c0-0.2-0.1-0.4-0.1-0.6l-1.4-3.4h-6.9l-0.6,1.5
	c-0.2,0.5-0.4,0.9-0.4,1.4s0.2,1,0.6,1.3c0.5,0.4,1,0.5,1.6,0.5h0.6v1.2h-7v-1.2h0.4c0.4,0,0.9-0.1,1.2-0.4c0.5-0.4,0.9-0.9,1.1-1.5
	l6.6-15.8L241.7,118.6z"/>
<path id="path42" class="st1" d="M270.5,127.4h1.6c1.2,0.1,2.3-0.3,3.3-1.1c0.7-0.7,1-1.7,0.9-2.7c0.1-0.9-0.2-1.9-0.9-2.6
	c-0.9-0.6-2-0.9-3.1-0.8c-0.5-0.1-1,0-1.5,0.3c-0.2,0.3-0.4,0.7-0.3,1.1 M264,119h9.6c1.3,0,2.6,0.2,3.8,0.6
	c0.9,0.3,1.7,0.9,2.2,1.6s0.7,1.5,0.7,2.3c0,1.3-0.7,2.6-1.8,3.3c-1.3,0.8-2.8,1.2-4.2,1.2c0.8,0.1,1.5,0.4,2.2,0.8
	c0.6,0.4,1,0.9,1.4,1.6c0.6,1,1,2.1,1.3,3.2c0.1,0.5,0.3,1,0.5,1.5c0.1,0.2,0.3,0.3,0.5,0.3c0.5,0,0.9-0.8,1-2.2h1.1
	c0,1.2-0.3,2.4-1,3.4c-1.2,1.1-3,1.3-4.5,0.5c-0.5-0.3-0.9-0.8-1.1-1.4c-0.3-0.8-0.5-1.7-0.6-2.5c-0.2-1.1-0.4-2.1-0.8-3.1
	c-0.2-0.5-0.5-0.9-1-1.2c-0.4-0.3-0.9-0.4-1.4-0.4h-1.4v6.8c0,0.3,0.1,0.5,0.3,0.7c0.3,0.2,0.6,0.3,0.9,0.3h1.7v1.2H264v-1.2h1.4
	c0.3,0,0.6-0.1,0.9-0.3c0.2-0.2,0.3-0.5,0.3-0.8v-13.9c0-0.3-0.1-0.6-0.2-0.8c-0.2-0.2-0.5-0.3-0.8-0.3H264V119z"/>
<path id="path44" class="st1" d="M296.3,119h16.1l0.4,7h-1.1c-0.2-1.2-0.5-2.4-1-3.5c-0.3-0.7-0.8-1.3-1.5-1.8
	c-0.5-0.4-1.2-0.5-1.8-0.5c-0.3,0-0.6,0.1-0.8,0.2c-0.2,0.2-0.3,0.4-0.3,0.7v14.3c0,0.2,0.1,0.5,0.2,0.7c0.2,0.2,0.4,0.3,0.6,0.3
	h2.1v1.2h-9.9v-1.2h2c0.3,0,0.5-0.1,0.7-0.2c0.2-0.2,0.3-0.4,0.2-0.7v-14.2c0-0.3-0.1-0.5-0.3-0.8c-0.2-0.2-0.5-0.3-0.9-0.2
	c-2.1,0-3.5,1.9-4.3,5.8H296"/>
<path id="path46" class="st1" d="M326.2,119h5.7l10,12.6V123c0-0.7-0.2-1.5-0.7-2s-1.2-0.8-2-0.9V119h6.7v1.2c-0.7,0-1.5,0.3-2,0.8
	c-0.4,0.6-0.7,1.3-0.6,2.1v14.4h-1.4l-11.4-14.6V133c-0.1,0.9,0.2,1.8,0.8,2.5c0.5,0.5,1.3,0.8,2,0.8h0.3v1.2H326v-1.2h0.5
	c0.7,0,1.4-0.3,1.8-0.9c0.5-0.6,0.8-1.4,0.8-2.2v-11.9c-0.5-0.7-1.3-1.1-2.1-1.1h-0.8"/>
<path id="path48" class="st1" d="M359.1,119h16.1l0.4,6.4h-1.1c-0.1-1.1-0.5-2.3-1-3.3c-0.4-0.6-0.9-1.2-1.5-1.5
	c-0.8-0.4-1.6-0.5-2.5-0.5H367c-0.3,0-0.6,0.1-0.9,0.2c-0.2,0.2-0.3,0.4-0.3,0.6v6.4h0.9c0.9,0.1,1.7-0.3,2.3-0.9
	c0.6-0.8,1-1.7,1-2.7h1.1v8.6H370c0-1.1-0.3-2.1-0.9-3c-0.7-0.6-1.6-0.9-2.5-0.9h-0.7v6.8c0,0.2,0.1,0.5,0.3,0.6
	c0.3,0.2,0.7,0.3,1.1,0.3h2.2c1.4,0.1,2.7-0.5,3.7-1.5c1.1-1.2,1.7-2.8,1.8-4.4h1.1l-0.3,7H359V136h1.7c0.3,0,0.6-0.1,0.8-0.3
	c0.2-0.2,0.3-0.5,0.3-0.8V121c0-0.3-0.1-0.5-0.3-0.7c-0.3-0.2-0.7-0.2-1-0.2H359"/>
<path id="path50" class="st1" d="M397.4,127.4h1.6c1.2,0.1,2.4-0.3,3.3-1.1c0.7-0.7,1-1.7,0.9-2.7c0.1-0.9-0.2-1.9-0.9-2.6
	c-0.9-0.6-2-0.9-3.1-0.8c-0.5-0.1-1,0-1.5,0.3c-0.2,0.2-0.3,0.5-0.3,1.1 M390.9,119h9.6c1.3,0,2.6,0.2,3.8,0.6
	c0.9,0.3,1.6,0.9,2.2,1.6c0.5,0.7,0.7,1.5,0.7,2.3c0,1.3-0.7,2.6-1.8,3.3c-1.3,0.8-2.8,1.2-4.3,1.2c0.8,0.1,1.5,0.4,2.2,0.8
	c0.6,0.4,1,0.9,1.4,1.6c0.6,1,1,2.1,1.3,3.2c0.1,0.5,0.3,1,0.6,1.5c0.1,0.2,0.3,0.3,0.5,0.3c0.5,0,0.9-0.8,1-2.2h1.1
	c0,1.2-0.3,2.4-1,3.4c-1.2,1.1-3,1.3-4.5,0.5c-0.5-0.3-0.9-0.8-1.1-1.4c-0.3-0.8-0.5-1.7-0.6-2.5c-0.2-1.1-0.5-2.1-0.8-3.1
	c-0.2-0.5-0.5-0.9-1-1.2c-0.4-0.3-0.9-0.4-1.5-0.4h-1.4v6.8c0,0.3,0.1,0.5,0.3,0.7c0.2,0.2,0.6,0.3,0.9,0.3h1.7v1.2h-9.3v-1.2h1.4
	c0.3,0,0.6-0.1,0.9-0.3c0.2-0.2,0.3-0.5,0.3-0.8v-13.9c0-0.3-0.1-0.6-0.3-0.8c-0.2-0.2-0.5-0.3-0.7-0.3h-1.6L390.9,119z"/>
<path id="path52" class="st1" d="M434.6,120.5l1.2-1.6h0.8l0.1,6.4h-1.1c-0.4-1.6-1.3-3-2.5-4.1c-1-0.9-2.2-1.4-3.6-1.4
	c-1,0-1.9,0.3-2.7,0.9c-0.7,0.5-1.1,1.3-1,2.2c0,0.5,0.1,1,0.4,1.4c0.3,0.5,0.8,0.8,1.3,1.1c1,0.4,2.1,0.7,3.2,0.9
	c1.3,0.2,2.5,0.6,3.7,1c1,0.4,1.8,1.1,2.4,1.9c0.6,0.9,0.9,1.9,0.8,2.9c0.1,1.6-0.6,3-1.8,4.1c-1.5,1.2-3.3,1.9-5.2,1.8
	c-1.9,0-3.8-0.7-5.2-2l-1.5,1.8H423V131h1.1c1.1,3.9,3.3,5.8,6.6,5.8c1.1,0.1,2.3-0.3,3.2-0.9c0.7-0.6,1.1-1.4,1.1-2.4
	c0-0.6-0.2-1.2-0.5-1.6c-0.4-0.5-0.9-0.9-1.5-1.1c-0.9-0.3-1.9-0.5-2.8-0.7c-1.5-0.3-3-0.7-4.4-1.4c-0.8-0.4-1.4-1-1.9-1.8
	c-0.4-0.8-0.6-1.7-0.6-2.5c-0.1-1.5,0.6-3,1.7-4.1c1.2-1.1,2.9-1.7,4.5-1.6C431.4,118.6,433.2,119.3,434.6,120.5"/>
<path id="path54" class="st1" d="M452.1,119h8.5v1.2h-1.2c-0.3,0-0.6,0.1-0.8,0.2c-0.2,0.2-0.3,0.4-0.2,0.6v6h7v-5.7
	c0-0.3-0.1-0.7-0.3-0.9c-0.3-0.2-0.6-0.3-1-0.3H463V119h8.6v1.2h-1.1c-0.3,0-0.7,0.1-0.9,0.2c-0.2,0.2-0.3,0.5-0.3,0.8v13.9
	c0,0.3,0.1,0.6,0.3,0.9c0.2,0.2,0.5,0.3,0.8,0.3h1.3v1.2h-8.5v-1.2h1.3c0.3,0,0.6-0.1,0.8-0.2c0.2-0.2,0.3-0.5,0.2-0.8v-6.6h-7v6.6
	c0,0.3,0,0.6,0.2,0.8s0.4,0.3,0.6,0.2h1.4v1.2h-8.6v-1.2h1.4c0.3,0,0.5-0.1,0.7-0.2c0.2-0.2,0.2-0.5,0.2-0.8v-13.9
	c0-0.3-0.1-0.7-0.3-0.9c-0.3-0.2-0.6-0.3-0.9-0.3h-1.1"/>
<path id="path56" class="st1" d="M485.6,119h9.5v1.2h-1.7c-0.3,0-0.6,0.1-0.8,0.2c-0.2,0.2-0.3,0.4-0.3,0.6v14.3
	c0,0.3,0.1,0.5,0.3,0.7c0.3,0.2,0.6,0.3,1,0.3h1.5v1.2h-9.5v-1.2h1.5c0.4,0,0.7-0.1,1-0.2c0.2-0.2,0.3-0.4,0.3-0.7v-14.1
	c0-0.3-0.1-0.6-0.3-0.8c-0.3-0.2-0.6-0.3-0.9-0.2h-1.6"/>
<path id="path58" class="st1" d="M516,128.1h2.3c0.7,0,1.5-0.2,2.1-0.5c0.5-0.3,1-0.7,1.3-1.2c0.3-0.7,0.4-1.5,0.4-2.4
	c0.1-1.2-0.3-2.4-1.2-3.2c-0.9-0.5-2-0.7-3-0.6c-0.5,0-1.1,0-1.6,0.2c-0.2,0.2-0.4,0.4-0.3,0.7 M509.3,119h10.8
	c1.6-0.1,3.2,0.4,4.4,1.5c1.1,0.9,1.7,2.2,1.7,3.6c0,1-0.3,2-1,2.8s-1.6,1.4-2.6,1.8c-1,0.4-2.1,0.5-3.2,0.6H516v6
	c0,0.3,0.1,0.6,0.3,0.8s0.5,0.3,0.7,0.3h2.1v1.2h-9.8v-1.2h1.7c0.3,0,0.6-0.1,0.8-0.3s0.3-0.5,0.3-0.8v-14c0-0.3-0.1-0.6-0.3-0.8
	s-0.4-0.3-0.7-0.3h-1.8V119z"/>
<path id="path60" class="st0" d="M118.7,46.6c-4.4-9.9-25.9-25.5-33.8-30.7l3.1-4.7c1.2,0.8,29.8,19.7,35.8,33L118.7,46.6z"/>
<path id="path62" class="st0" d="M118.6,76.6c-1.1,0-2.1-0.7-2.6-1.7c-3.3-7.5-23.5-28.8-31-36.3c-1.1-1.1-1.1-2.9,0-4s2.9-1.1,4,0
	s27.8,28.1,32.2,38c0.6,1.4,0,3.1-1.5,3.7l0,0C119.3,76.5,119,76.6,118.6,76.6"/>
<path id="path64" class="st0" d="M110.2,121.5c-1.2,0-2.3-0.8-2.7-2c-5.2-17.4,13.4-28.3,19.5-31.9l0.8-0.5l0,0l1.1-0.9
	c7.7-5.7,2.4-14.3,1.5-15.7c-2.1-2.1-13.6-14.1-12.8-23.1c0.2-2.6,1.6-5,3.8-6.5c1.7-1.3,3.7-2.1,5.9-2.2
	c4.8-0.3,12.6,1.9,22.8,14.7c0.9,1.3,0.6,3-0.7,3.9c-1.2,0.8-2.8,0.6-3.7-0.4c-7.8-9.8-13.4-12.2-16.7-12.6
	c-1.3-0.2-2.6,0.1-3.7,0.7l-0.1,0.1l-0.5,0.4c-0.9,0.5-1.4,1.4-1.5,2.5c-0.5,5,6.7,14.1,11.3,18.7l0.3,0.4c3.5,4.9,7.4,16-2.2,23.4
	c-0.8,0.7-1.8,1.4-2.8,1.9c-5.7,3.4-20.9,12.3-17,25.5c0.4,1.5-0.4,3.1-1.9,3.5C110.7,121.4,110.5,121.5,110.2,121.5"/>
<path id="path66" class="st0" d="M105.9,89.3c-1,0-2-0.6-2.5-1.5c-7-13-22.1-31.3-22.2-31.5c-1-1.2-0.8-3,0.4-4s3-0.8,4,0.4l0,0
	c0.6,0.8,15.6,18.9,22.9,32.4c0.7,1.4,0.2,3.1-1.1,3.8C106.9,89.2,106.4,89.3,105.9,89.3"/>
<path id="path68" class="st2" d="M76.5,158.7c-0.7,0-1.4-0.3-2-0.8c-1.2-1-1.3-2.8-0.3-4c0.4-0.5,1-0.8,1.7-0.9
	c2.7-2.4,11.6-16,13.8-30c1.2-7.9,0-14.2-3.6-18.7c-0.2-0.3-14.7-20.6-14.8-30c0-1.6,1.2-2.8,2.8-2.8l0,0c1.5,0,2.8,1.2,2.8,2.8
	c0.1,6,10.4,22.2,13.7,26.6c14.4,17.7-4.2,49.9-10.7,56.2C79,158,77.8,158.6,76.5,158.7"/>
<path id="path70" class="st2" d="M65.2,96.5c-0.4,0-0.8-0.1-1.1-0.2c-1.4-0.6-2.1-2.3-1.5-3.7C74.4,65,78.1,57.2,79.5,54.8l0.2-0.4
	c4-11.4,1.8-13.2,1.7-13.2c-1.4-0.6-2.2-2.2-1.6-3.6c0.6-1.4,2.2-2.2,3.6-1.6c0.2,0.1,0.3,0.1,0.5,0.2c6.9,3.5,2.5,16,1,20.1v0.1
	l-0.7,1.5c-1.8,3.1-10.9,24-16.4,37C67.3,95.9,66.3,96.6,65.2,96.5"/>
<path id="path72" class="st2" d="M73.1,126.8L73.1,126.8c-1.7-0.1-2.9-1.4-2.8-2.9l0,0c0.5-13.7-16.4-18.5-22.8-20.3
	c-1.1-0.2-2.2-0.6-3.2-1.1c-11.2-4.8-10.2-16.5-8-22.1l0.2-0.4c3.4-5.6,8.1-16.3,6.4-21c-0.3-1-1.1-1.7-2.1-2l-0.7-0.3
	c-1.3-0.3-2.6-0.2-3.8,0.3c-3.1,1.2-8,5-13.1,16.4c-0.6,1.4-2.3,2.1-3.7,1.4c-1.4-0.6-2.1-2.3-1.4-3.7c6.6-14.9,13.7-19.1,18.4-20
	c2.1-0.4,4.3-0.2,6.3,0.7c2.5,0.9,4.5,2.8,5.3,5.3c3.1,8.4-5.2,23-6.7,25.6c-0.7,1.8-3.5,11.3,5.3,14.8l1.3,0.6l0.9,0.2
	c6.8,1.9,27.6,7.8,26.9,26C75.9,125.6,74.6,126.8,73.1,126.8"/>
<path id="path74" class="st2" d="M53.7,83.1c-0.5,0-1-0.1-1.4-0.4c-1.3-0.8-1.8-2.5-1-3.8l0,0c3.9-6.8,23.2-39.6,32.9-45.1
	c0.2-0.3,0.4-0.6,0.6-0.9c1.3-1.9,4.1-5.8,3.3-8.8c-0.4-1.5-1.8-2.8-4.2-3.9c-1.4-0.7-1.9-2.4-1.2-3.8c0.7-1.3,2.2-1.9,3.5-1.3
	c4,1.8,6.5,4.3,7.4,7.6c1.5,5.5-2.3,10.9-4.1,13.5l-0.1,0.1c-1,1.4-2.3,2.6-3.8,3.3C82.7,41.2,65.9,65,56.2,81.8
	C55.7,82.6,54.7,83.1,53.7,83.1"/>
<path id="path76" class="st0" d="M85.8,168.2c-1.6-0.1-2.7-1.4-2.6-3c0.1-1.4,1.2-2.6,2.6-2.6c42.3,0,76.8-34.6,76.8-77
	s-34.4-77-76.8-77c-1.6-0.1-2.7-1.4-2.6-3C83.3,4.2,84.4,3,85.8,3c45.4,0,82.4,37.1,82.4,82.6S131.2,168.2,85.8,168.2"/>
<path id="path78" class="st2" d="M85.8,168.2c-45.4,0-82.4-37.1-82.4-82.7s37-82.6,82.4-82.6C87.5,3,89,4,89.8,5.4
	c4.8,8.1-4.7,15.2-15.6,23.4C67.6,33.7,60.1,39.3,53.9,46s-6.9,9.7-7,10c-0.1,1.5-1.4,2.7-3,2.6c-1.4-0.1-2.6-1.2-2.6-2.6
	c-0.1-1.3,0.6-5.3,8.4-13.8c6.5-7.1,14.2-12.9,21-18C79.4,17.7,86.9,12.1,85,8.4C43.1,8.7,9,43.1,9,85.4c0,42.5,34.4,77,76.8,77
	c1.6-0.1,2.9,1.1,3,2.6c0.1,1.6-1.1,2.9-2.6,3c-0.1,0-0.2,0-0.3,0"/>
</svg>
